<?xml version="1.0" encoding="UTF-8" standalone="no"?>
<!DOCTYPE svg PUBLIC "-//W3C//DTD SVG 1.1//EN" "http://www.w3.org/Graphics/SVG/1.1/DTD/svg11.dtd">
<svg xmlns="http://www.w3.org/2000/svg" version="1.1" viewBox="0.00 0.00 32.00 32.00">
<rect fill="#4cfa77" fill-opacity="0.996" x="-0.72" y="-6.46" transform="translate(16.11,15.98) rotate(17.3)" width="1.44" height="12.92" rx="0.70"/>
<path fill="#4cfa77" fill-opacity="0.996" d="
  M 6.32 16.70
  A 0.81 0.80 44.6 0 1 6.31 15.35
  Q 8.43 13.94 10.83 12.35
  Q 11.83 11.70 12.40 12.37
  A 0.74 0.73 52.9 0 1 12.25 13.46
  L 8.89 15.66
  A 0.47 0.47 0.0 0 0 8.89 16.44
  L 12.29 18.77
  A 0.74 0.74 0.0 0 1 11.47 20.00
  L 6.32 16.70
  Z"
/>
<path fill="#4cfa77" fill-opacity="0.996" d="
  M 22.93 15.45
  Q 21.22 14.66 19.81 13.44
  A 0.47 0.43 9.1 0 1 19.70 13.30
  Q 19.13 12.26 20.11 11.92
  A 0.52 0.52 0.0 0 1 20.56 11.98
  L 25.51 15.22
  A 0.92 0.91 -45.1 0 1 25.51 16.75
  L 20.85 19.82
  A 0.76 0.76 0.0 0 1 19.99 18.56
  L 23.01 16.45
  A 0.58 0.58 0.0 0 0 22.93 15.45
  Z"
/>
</svg>
