<?xml version="1.0" encoding="UTF-8" standalone="no"?>
<!DOCTYPE svg PUBLIC "-//W3C//DTD SVG 1.1//EN" "http://www.w3.org/Graphics/SVG/1.1/DTD/svg11.dtd">
<svg xmlns="http://www.w3.org/2000/svg" version="1.1" viewBox="0.00 0.00 345.00 281.00">
<g stroke-width="2.00" fill="none" stroke-linecap="butt">
<path stroke="#3d824d" vector-effect="non-scaling-stroke" d="
  M 194.9698 92.9350
  A 6.08 6.08 0.0 0 0 190.9464 85.3360
  L 190.2964 85.1361
  A 6.08 6.08 0.0 0 0 182.6975 89.1595
  L 152.2702 188.0650
  A 6.08 6.08 0.0 0 0 156.2936 195.6640
  L 156.9436 195.8639
  A 6.08 6.08 0.0 0 0 164.5425 191.8405
  L 194.9698 92.9350"
/>
<path stroke="#3d824d" vector-effect="non-scaling-stroke" d="
  M 105.70 140.23
  Q 122.52 129.13 139.39 118.14
  C 146.57 113.46 141.28 104.54 134.07 104.40
  A 1.71 1.70 29.3 0 0 133.13 104.66
  Q 111.54 118.63 90.06 132.82
  C 85.90 135.56 83.07 139.41 85.66 144.12
  Q 86.90 146.39 91.98 149.70
  Q 111.46 162.41 130.93 175.15
  C 138.90 180.38 147.24 168.20 140.16 163.61
  Q 122.83 152.39 105.70 140.89
  Q 105.20 140.56 105.70 140.23"
/>
<path stroke="#3d824d" vector-effect="non-scaling-stroke" d="
  M 239.52 140.27
  A 0.39 0.39 0.0 0 1 239.52 140.92
  Q 222.22 152.23 205.02 163.54
  Q 202.20 165.39 202.41 168.26
  Q 203.00 176.42 211.60 176.51
  A 1.44 1.38 -59.8 0 0 212.40 176.28
  Q 233.61 162.38 254.85 148.49
  C 263.02 143.14 261.41 137.01 253.89 132.09
  Q 234.85 119.64 215.80 107.14
  C 210.59 103.72 206.59 103.03 203.48 109.27
  C 201.24 113.76 202.75 116.16 206.71 118.78
  Q 223.13 129.65 239.52 140.27"
/>
</g>
<path fill="#1f1717" d="
  M 0.00 0.00
  L 345.00 0.00
  L 345.00 281.00
  L 0.00 281.00
  L 0.00 0.00
  Z
  M 194.9698 92.9350
  A 6.08 6.08 0.0 0 0 190.9464 85.3360
  L 190.2964 85.1361
  A 6.08 6.08 0.0 0 0 182.6975 89.1595
  L 152.2702 188.0650
  A 6.08 6.08 0.0 0 0 156.2936 195.6640
  L 156.9436 195.8639
  A 6.08 6.08 0.0 0 0 164.5425 191.8405
  L 194.9698 92.9350
  Z
  M 105.70 140.23
  Q 122.52 129.13 139.39 118.14
  C 146.57 113.46 141.28 104.54 134.07 104.40
  A 1.71 1.70 29.3 0 0 133.13 104.66
  Q 111.54 118.63 90.06 132.82
  C 85.90 135.56 83.07 139.41 85.66 144.12
  Q 86.90 146.39 91.98 149.70
  Q 111.46 162.41 130.93 175.15
  C 138.90 180.38 147.24 168.20 140.16 163.61
  Q 122.83 152.39 105.70 140.89
  Q 105.20 140.56 105.70 140.23
  Z
  M 239.52 140.27
  A 0.39 0.39 0.0 0 1 239.52 140.92
  Q 222.22 152.23 205.02 163.54
  Q 202.20 165.39 202.41 168.26
  Q 203.00 176.42 211.60 176.51
  A 1.44 1.38 -59.8 0 0 212.40 176.28
  Q 233.61 162.38 254.85 148.49
  C 263.02 143.14 261.41 137.01 253.89 132.09
  Q 234.85 119.64 215.80 107.14
  C 210.59 103.72 206.59 103.03 203.48 109.27
  C 201.24 113.76 202.75 116.16 206.71 118.78
  Q 223.13 129.65 239.52 140.27
  Z"
/>
<rect fill="#5aed83" x="-6.42" y="-57.82" transform="translate(173.62,140.50) rotate(17.1)" width="12.84" height="115.64" rx="6.08"/>
<path fill="#5aed83" d="
  M 105.70 140.89
  Q 122.83 152.39 140.16 163.61
  C 147.24 168.20 138.90 180.38 130.93 175.15
  Q 111.46 162.41 91.98 149.70
  Q 86.90 146.39 85.66 144.12
  C 83.07 139.41 85.90 135.56 90.06 132.82
  Q 111.54 118.63 133.13 104.66
  A 1.71 1.70 29.3 0 1 134.07 104.40
  C 141.28 104.54 146.57 113.46 139.39 118.14
  Q 122.52 129.13 105.70 140.23
  Q 105.20 140.56 105.70 140.89
  Z"
/>
<path fill="#5aed83" d="
  M 239.52 140.27
  Q 223.13 129.65 206.71 118.78
  C 202.75 116.16 201.24 113.76 203.48 109.27
  C 206.59 103.03 210.59 103.72 215.80 107.14
  Q 234.85 119.64 253.89 132.09
  C 261.41 137.01 263.02 143.14 254.85 148.49
  Q 233.61 162.38 212.40 176.28
  A 1.44 1.38 -59.8 0 1 211.60 176.51
  Q 203.00 176.42 202.41 168.26
  Q 202.20 165.39 205.02 163.54
  Q 222.22 152.23 239.52 140.92
  A 0.39 0.39 0.0 0 0 239.52 140.27
  Z"
/>
</svg>
